        <svg xmlns="http://www.w3.org/2000/svg" xmlns:xlink="http://www.w3.org/1999/xlink" version="1.1" width="3176.470588235294" 
        height="617.6470588235295" viewBox="0 0 3176.470588235294 617.6470588235295">
			
			<g transform="scale(8.823529411764707) translate(10, 10)">
				<defs id="SvgjsDefs3036"><linearGradient id="SvgjsLinearGradient3041"><stop id="SvgjsStop3042" stop-color="#00ddff" offset="0"></stop><stop id="SvgjsStop3043" stop-color="#ff00d4" offset="1"></stop></linearGradient></defs><g id="SvgjsG3037" featureKey="5TMTKC-0" transform="matrix(1.5625,0,0,1.5625,0,0)" fill="url(#SvgjsLinearGradient3041)"><g xmlns="http://www.w3.org/2000/svg" display="none"><rect x="-69.333" y="-18.667" display="inline" fill="url(#SvgjsLinearGradient3041)" width="473.333" height="236"></rect></g><g xmlns="http://www.w3.org/2000/svg" display="none"><g display="inline"><g><polygon fill="url(#SvgjsLinearGradient3041)" points="32,31.952 0,31.952 0,0.048    "></polygon></g><g><polygon fill="url(#SvgjsLinearGradient3041)" points="23.347,23.325 8.653,23.325 8.653,8.675    "></polygon></g></g><g display="inline"><g><polygon fill="url(#SvgjsLinearGradient3041)" points="0,0.048 32,0.048 32,31.952    "></polygon></g><g><polygon fill="url(#SvgjsLinearGradient3041)" points="8.653,8.675 23.347,8.675 23.347,23.325    "></polygon></g></g></g><g xmlns="http://www.w3.org/2000/svg" display="none"><g display="inline"><rect x="8.675" y="8.675" fill="url(#SvgjsLinearGradient3041)" stroke="url(#SvgjsLinearGradient3041)" stroke-miterlimit="10" width="14.65" height="14.65"></rect><rect x="0.5" y="0.326" fill="url(#SvgjsLinearGradient3041)" stroke="url(#SvgjsLinearGradient3041)" stroke-miterlimit="10" width="31" height="31.348"></rect><line fill="url(#SvgjsLinearGradient3041)" stroke="url(#SvgjsLinearGradient3041)" stroke-miterlimit="10" x1="0.413" y1="0.413" x2="31.587" y2="31.587"></line></g></g><g xmlns="http://www.w3.org/2000/svg" display="none"><rect x="0.5" y="0.326" display="inline" fill="url(#SvgjsLinearGradient3041)" stroke="url(#SvgjsLinearGradient3041)" stroke-miterlimit="10" width="31" height="31.348"></rect><rect x="8.675" y="8.675" display="inline" fill="url(#SvgjsLinearGradient3041)" stroke="url(#SvgjsLinearGradient3041)" stroke-miterlimit="10" width="14.65" height="14.65"></rect><line display="inline" fill="url(#SvgjsLinearGradient3041)" stroke="url(#SvgjsLinearGradient3041)" stroke-miterlimit="10" x1="0.413" y1="0.413" x2="31.587" y2="31.587"></line></g><g xmlns="http://www.w3.org/2000/svg"><g><polygon points="9.382,8.675 23.325,8.675 23.325,22.618 32,31.293 32,0 0.707,0   "></polygon><polygon points="22.618,23.325 8.675,23.325 8.675,9.382 0,0.707 0,32 31.293,32   "></polygon></g></g></g><g id="SvgjsG3038" featureKey="nameFeature-0" transform="matrix(1.3657188116831123,0,0,1.3657188116831123,67.72073069264071,6.468942289999756)" fill="#131313"><path d="M17.933 18.3323 l-1.2821 1.9477 l-1.2593 -0.82894 c-1.1313 0.40022 -2.8088 0.41734 -5.7944 0.44716 c-0.57876 0.0057618 -1.1124 0.010078 -1.6047 0.010078 c-2.9354 0 -4.411 -0.15537 -5.3538 -1.0922 c-0.98186 -0.9757 -0.97648 -2.4126 -0.96838 -4.5876 c0.0090234 -2.427 0.014648 -3.8916 1.2449 -4.801 c1.0612 -0.7845 2.6026 -0.80516 5.9796 -0.85054 l0.67396 -0.0092774 c4.209 -0.060156 5.951 -0.085 7.0356 0.99038 c0.91764 0.90978 0.91006 2.226 0.89856 4.2182 c-0.00091796 0.14832 -0.0016992 0.302 -0.0023438 0.46118 c-0.0044532 1.1823 -0.0075976 2.0366 -0.13172 2.757 c-0.041856 0.24262 -0.10607 0.52762 -0.22248 0.82034 z M9.574 17.5664 c1.0947 -0.010859 2.0672 -0.020644 2.8756 -0.052168 l-2.6542 -1.7474 l1.2823 -1.9477 l4.0148 2.6432 c0.070098 -0.52422 0.072968 -1.3022 0.076504 -2.2336 c0.00052734 -0.16088 0.0014453 -0.31614 0.0023632 -0.46588 c0.006543 -1.1449 0.01334 -2.3288 -0.20862 -2.5488 c-0.27558 -0.27322 -1.5123 -0.33638 -3.1584 -0.33638 c-0.67736 0 -1.424 0.010723 -2.2018 0.021836 l-0.67606 0.0092774 c-2.4194 0.032442 -4.1674 0.055976 -4.625 0.39406 c-0.2888 0.21346 -0.2935 1.4746 -0.29898 2.9346 c-0.0050976 1.3559 -0.0099414 2.6366 0.28016 2.9248 c0.45554 0.45254 2.914 0.42782 5.2914 0.40428 z M37.227000000000004 8.487 l0.041758 5.7 c0.017129 1.2612 -0.49178 2.4856 -1.4332 3.448 c-0.9982 1.0203 -2.9408 2.242 -6.5268 2.2684 c-0.034786 0.0002539 -0.069706 0.00039062 -0.10424 0.00039062 c-2.7146 0 -4.9816 -0.77976 -6.3926 -2.201 c-0.96994 -0.97702 -1.4953 -2.2218 -1.4805 -3.5064 l-0.041992 -5.6918 l2.3476 -0.017402 l0.042246 5.7166 l-0.00013672 0.012813 c-0.0096876 0.66232 0.26668 1.2957 0.799 1.832 c0.98014 0.98734 2.6886 1.5215 4.8136 1.507 c2.1676 -0.015957 3.8956 -0.57078 4.866 -1.5626 c0.50916 -0.5204 0.77336 -1.1346 0.76394 -1.7765 l0 -0.0083789 l-0.04211 -5.7036 z M47.2954 7.711 l9.1766 12.19 l-2.9508 0 l-2.566 -3.3974 l-7.3197 0 l-2.5286 3.3974 l-2.9177 0 z M45.3962 14.1556 l3.7983 0 l-1.8992 -2.5322 z M72.479 8.593 l2.3476 0 l0 11.25 l-13.59 -7.098 l0 7.2556 l-2.3477 0 l0 -11.25 l13.59 7.098 l0 -7.2556 z M78.1692 8.475 l15.938 0 l0 2.3477 l-6.7954 0 l0 9.0932 l-2.3476 0 l0 -9.0932 l-6.7946 0 l0 -2.3477 z M113.407 8.487 l0.041758 5.7 c0.017129 1.2612 -0.49178 2.4856 -1.4332 3.448 c-0.9982 1.0203 -2.9408 2.242 -6.5268 2.2684 c-0.034786 0.0002539 -0.069706 0.00039062 -0.10424 0.00039062 c-2.7146 0 -4.9816 -0.77976 -6.3926 -2.201 c-0.96994 -0.97702 -1.4953 -2.2218 -1.4805 -3.5064 l-0.041992 -5.6918 l2.3476 -0.017402 l0.042246 5.7166 l-0.00013672 0.012813 c-0.0096876 0.66232 0.26668 1.2957 0.799 1.832 c0.98014 0.98734 2.6886 1.5215 4.8136 1.507 c2.1676 -0.015957 3.8956 -0.57078 4.866 -1.5626 c0.50916 -0.5204 0.77336 -1.1346 0.76394 -1.7765 l0 -0.0083789 l-0.04211 -5.7036 z M124.778 14.0628 l7.9688 -5.3126 l0 11.25 l-2.3477 0 l0 -6.8631 l-5.621 3.7472 l-5.621 -3.7472 l0 6.8631 l-2.3477 0 l0 -11.25 z M159.905 9.649 c0.91776 0.9099 0.9102 2.226 0.89856 4.2182 c-0.00091796 0.14832 -0.0016992 0.302 -0.0023438 0.46118 c-0.0044532 1.1823 -0.0075976 2.0366 -0.13172 2.757 c-0.10568 0.6142 -0.34974 1.4995 -1.2436 2.0954 c-1.1321 0.75466 -2.8232 0.77168 -6.5282 0.8087 c-0.57862 0.0057618 -1.1122 0.010078 -1.6046 0.010078 c-2.9354 0 -4.411 -0.15537 -5.3538 -1.0922 c-0.98198 -0.9757 -0.97648 -2.4126 -0.96838 -4.5876 c0.0090234 -2.4268 0.014512 -3.8916 1.2447 -4.801 c1.0614 -0.7845 2.6028 -0.80516 5.9798 -0.85054 l0.67396 -0.0092774 c4.2088 -0.060156 5.9508 -0.085136 7.0354 0.99024 z M158.471 13.854199999999999 c0.006543 -1.1448 0.013457 -2.3288 -0.20864 -2.5488 c-0.27556 -0.27322 -1.5123 -0.33638 -3.1584 -0.33638 c-0.67736 0 -1.4242 0.010723 -2.2018 0.021836 l-0.67606 0.0092774 c-2.4194 0.032442 -4.1674 0.055976 -4.625 0.39406 c-0.2888 0.21346 -0.2935 1.4744 -0.29898 2.9346 c-0.0050976 1.3559 -0.0099414 2.6366 0.28016 2.9248 c0.4554 0.45254 2.9138 0.42782 5.2914 0.40428 c2.7302 -0.027206 4.7028 -0.046954 5.258 -0.4171 c0.32686 -0.2179 0.33104 -1.3516 0.33692 -2.9208 c0.00052734 -0.16074 0.0014453 -0.316 0.0023632 -0.46588 z M177.73900000000003 8.593 l2.3476 0 l0 11.25 l-13.59 -7.098 l0 7.2556 l-2.3477 0 l0 -11.25 l13.59 7.098 l0 -7.2556 z M199.36700000000002 10.9512 l-13.59 0.000019531 l0 2.1863 l9.0642 0.03375 l-0.0086328 2.3478 l-9.0556 -0.03375 l0 2.1782 l13.59 0 l0 2.3477 l-15.938 0 l0 -11.407 l15.938 0 l0 2.3476 z"></path></g>
			</g>
		</svg>
	